<svg width="23" height="25" viewBox="0 0 23 25" fill="none" xmlns="http://www.w3.org/2000/svg">
<path d="M2.72916 22.0792H17.5823L16.8729 19.7823C16.9781 19.874 22.9583 25 22.9583 25V2.57812C22.8875 1.18437 21.6875 0 20.2 0L2.73437 0.003125C1.24791 0.003125 0.0416641 1.18958 0.0416641 2.58333V19.5C0.0416641 20.9698 1.24583 22.0792 2.72916 22.0792ZM13.7167 5.91979L13.6823 5.93229L13.6948 5.91979H13.7167ZM5.7677 7.24167C7.67708 5.85208 9.44687 5.91875 9.44687 5.91875L9.58958 6.05937C7.25312 6.61667 6.19375 7.66042 6.19375 7.66042C6.30208 7.6375 11.0198 4.91563 16.7365 7.72917C16.7365 7.72917 15.675 6.75312 13.4823 6.12812L13.676 5.9375C13.9792 5.93854 15.5833 5.99479 17.3 7.25C17.3 7.25 19.2208 10.5312 19.2208 14.5625C19.1573 14.4854 18.0292 16.2979 15.126 16.3604C15.126 16.3604 14.6344 15.8042 14.2844 15.3187C15.9823 14.8313 16.6177 13.8562 16.6177 13.8562C13.3125 15.9375 10.4156 15.6125 6.95 14.2062C6.9177 14.2062 6.90312 14.1917 6.88646 14.175V14.1687C6.86979 14.1531 6.85521 14.1375 6.82291 14.1375H6.76041C6.54791 13.9979 6.40625 13.9292 6.40625 13.9292C6.40625 13.9292 7.04062 14.9042 8.67083 15.3917C8.24271 15.8802 7.81875 16.4354 7.81875 16.4354C4.91666 16.3667 3.85833 14.5542 3.85833 14.5542C3.85833 10.5167 5.7677 7.24167 5.7677 7.24167Z" fill="white"/>
<path d="M13.9042 13.3031C14.6448 13.3031 15.2479 12.6781 15.2479 11.9072C15.2479 11.1416 14.6479 10.5166 13.9042 10.5166V10.5197C13.1667 10.5197 12.5625 11.1426 12.5604 11.9135C12.5604 12.6781 13.1635 13.3031 13.9042 13.3031Z" fill="white"/>
<path d="M9.09375 13.3031C9.83437 13.3031 10.4375 12.6781 10.4375 11.9072C10.4375 11.1416 9.83854 10.5166 9.09792 10.5166L9.09375 10.5197C8.35312 10.5197 7.75 11.1426 7.75 11.9135C7.75 12.6781 8.35312 13.3031 9.09375 13.3031Z" fill="white"/>
</svg>
