<svg width="58" height="58" viewBox="0 0 58 58" fill="none" xmlns="http://www.w3.org/2000/svg">
<path d="M56.0666 10.6333H52.1999C51.5122 10.6354 50.8779 11.0038 50.5353 11.6H36.5554C36.1473 10.4455 35.0578 9.67176 33.8333 9.66671H31.9V5.53124C32.4962 5.18865 32.8646 4.55427 32.8667 3.86661V1.9333C32.8666 0.865568 32.001 0 30.9333 0H20.3C18.6983 0 17.4 1.29835 17.4 2.9C17.4 4.50166 18.6983 5.80001 20.3 5.80001H26.1V9.66671H3.8667C1.73113 9.66671 0 11.3979 0 13.5333V26.0999C0 28.2354 1.73113 29.9667 3.8667 29.9667H11.513C12.4185 29.9684 13.2953 29.6492 13.9877 29.0657L18.7157 25.1332H19.3334V27.0666C19.3367 27.9994 19.6805 28.899 20.3001 29.5963L10.9165 52.2899C9.61884 52.6046 8.70371 53.7647 8.7 55.1V56.0667C8.7 57.1344 9.56557 58 10.6333 58H16.4333C17.501 58 18.3666 57.1344 18.3666 56.0667V55.1C18.3645 54.1174 17.8649 53.2026 17.0393 52.6698L23.1999 37.7783V52.375C22.0444 52.7835 21.2704 53.8743 21.2666 55.1V56.0667C21.2666 57.1344 22.1322 58 23.1999 58H28.9999C30.0676 58 30.9332 57.1344 30.9332 56.0667V55.1C30.9282 53.8755 30.1544 52.786 28.9999 52.3779V37.7812L35.1605 52.6679C34.3344 53.2011 33.8347 54.1167 33.8332 55.1V56.0667C33.8332 57.1344 34.6988 58 35.7665 58H41.5665C42.6342 58 43.4998 57.1344 43.4998 56.0667V55.1C43.496 53.7647 42.581 52.6046 41.2833 52.2899L31.8999 29.5965C32.5195 28.8991 32.8633 27.9996 32.8666 27.0667V25.1334H33.8333C35.435 25.1334 36.7333 23.8351 36.7333 22.2334V17.4001H50.5354C50.878 17.9964 51.5123 18.3647 52.2 18.3668H56.0667C57.1344 18.3668 58 17.5013 58 16.4335V12.5668C57.9999 11.4989 57.1343 10.6333 56.0666 10.6333ZM19.3333 2.9C19.3333 2.36609 19.7661 1.9333 20.3 1.9333H30.9333V3.86661H20.3C19.7661 3.8667 19.3333 3.43392 19.3333 2.9ZM28.0333 5.80001H29.9666V9.66671H28.0333V5.80001ZM12.7436 27.5857C12.3994 27.8761 11.9632 28.0348 11.5129 28.0333H3.8667C2.79896 28.0333 1.9334 27.1677 1.9334 26.0999V25.1332H15.6929L12.7436 27.5857ZM10.6333 56.0667V55.1C10.6333 54.5661 11.0661 54.1333 11.6 54.1333H15.4667C16.0006 54.1333 16.4334 54.5661 16.4334 55.1V56.0667H10.6333ZM15.1418 52.2H13.0499L21.9384 30.7032C22.3429 30.8505 22.7694 30.9282 23.1999 30.9333V32.7225L15.1418 52.2ZM27.0666 52.2H25.1333V30.9334H27.0666V52.2ZM23.2 56.0667V55.1C23.2 54.5661 23.6328 54.1333 24.1667 54.1333H28.0334C28.5673 54.1333 29.0001 54.5661 29.0001 55.1V56.0667H23.2ZM29 30.9334C29.4317 30.9288 29.8596 30.851 30.2653 30.7033L39.15 52.2001H37.0581L29 32.7226V30.9334ZM41.5666 56.0667H35.7666V55.1C35.7666 54.5661 36.1994 54.1333 36.7333 54.1333H40.6C41.1339 54.1333 41.5667 54.5661 41.5667 55.1V56.0667H41.5666ZM30.9333 27.0666C30.9333 28.1344 30.0677 29 29 29H23.2C22.1323 29 21.2667 28.1344 21.2667 27.0666V25.1333H30.9334V27.0666H30.9333ZM34.7999 22.2333C34.7999 22.7673 34.3671 23.2 33.8332 23.2H1.9333V13.5333C1.9333 12.4656 2.79887 11.6 3.8666 11.6H33.8332C34.3671 11.6 34.7999 12.0328 34.7999 12.5667V22.2333ZM36.7333 13.5333H50.2666V15.4666H36.7333V13.5333ZM52.1999 16.4333V12.5666H56.0666V16.4333H52.1999Z" fill="white"/>
</svg>
