<svg width="602" height="133" viewBox="0 0 602 133" fill="none" xmlns="http://www.w3.org/2000/svg">
<path d="M14.2381 52.5369C18.2056 52.6324 16.8719 52.5364 18.2056 52.6324C28.7903 52.6733 39.3749 52.6324 49.9527 52.6324H53.531V53.6354H24.1672V60.5812C25.4305 60.6426 26.6392 60.7586 27.8479 60.7654C34.2192 60.7654 40.5904 60.7176 46.9685 60.7654C51.4004 60.82 53.7973 63.0715 53.8656 67.4246C53.9885 72.9967 53.9885 78.571 53.8656 84.1477C53.7632 88.5348 51.1341 90.9706 46.6749 90.9706C35.8649 90.9706 25.0549 90.9706 14.2449 90.9706V81.4185H43.9502V69.5943C36.9302 69.5943 30.1424 69.5056 23.3545 69.6352C19.6465 69.7035 16.4369 69.0075 14.2449 65.7257L14.2381 52.5369Z" fill="white"/>
<path d="M14.2381 49.3369C14.2313 49.267 14.2394 49.1965 14.2619 49.13C14.2843 49.0635 14.3206 49.0024 14.3683 48.9509C14.416 48.8993 14.4741 48.8585 14.5387 48.8309C14.6034 48.8034 14.6731 48.7898 14.7434 48.7911C27.2538 48.7911 40.8567 48.7911 53.3739 48.7911V49.6235L14.2381 49.3369Z" fill="white"/>
<path d="M53.2647 51.5132V50.4898L14.3405 50.4897C14.3405 51.2265 14.3405 50.9446 14.3405 51.2265C21.8987 51.3995 40.2504 51.5132 53.2647 51.5132Z" fill="white"/>
<path d="M314.862 26.8824C315.204 22.5089 312.554 20.7008 309.399 19.0564C305.179 16.8731 301.123 14.3759 296.998 12.0083L289.446 7.64844C289.275 7.89406 289.097 8.13287 288.92 8.37849C294.465 17.7055 299.969 27.0529 305.562 36.3526C308.812 41.7564 311.912 47.2694 315.641 52.332C317.539 54.9043 318.905 60.2125 317.061 63.1328C314.63 66.9536 312.397 70.9041 310.13 74.8273C305.386 83.0558 300.656 91.2911 295.94 99.5333C291.965 106.465 288.005 113.404 283.498 121.285L248.391 59.8782L247.237 58.2202L253.984 61.0518C255.629 58.2339 257.043 55.532 258.764 53.0075C260.287 50.6604 260.86 48.4429 259.836 45.7137C258.47 42.1112 257.446 38.3927 256.346 34.7083C255.513 31.9314 254.796 29.1203 254.025 26.3229C255.015 26.4048 255.336 26.6845 255.541 27.0393C261.177 36.8462 266.797 46.6599 272.401 56.4804C275.03 61.0995 274.928 61.0518 270.66 64.1835C269.219 65.2411 267.245 66.6671 267.061 68.1272C266.556 72.0163 266.89 76.0077 266.89 80.0742C274.75 74.684 280.616 79.6784 283.354 86.0306C284.72 76.5535 294.731 76.4375 298.057 78.2524C299.047 69.7101 299.894 68.9118 296.404 62.4778C294 58.036 291.972 53.3964 289.487 49.0092C283.013 37.5808 276.328 26.2683 269.854 14.8398C268.768 12.9226 267.867 12.793 266.125 13.8642C262.936 15.8087 259.57 17.4667 256.408 19.4522C254.858 20.421 252.502 21.7515 252.393 23.0752C252.058 27.0734 249.852 27.0734 246.861 26.9915C241.18 26.8278 235.484 26.9301 229.789 26.9506C228.956 26.9506 228.116 27.1007 226.819 27.2235L283.498 124.744L340.382 26.8824H314.862ZM280.036 67.2197C279.943 66.9449 279.894 66.6569 279.892 66.3668C279.892 65.596 280.199 64.8567 280.744 64.3116C281.29 63.7665 282.03 63.4603 282.801 63.4603C283.573 63.4603 284.313 63.7665 284.858 64.3116C285.404 64.8567 285.71 65.596 285.71 66.3668C285.705 66.6589 285.656 66.9485 285.567 67.2265C286.033 67.3076 286.473 67.5011 286.847 67.7903C287.222 68.0795 287.52 68.4556 287.716 68.886C287.912 69.3165 288 69.7882 287.972 70.2603C287.945 70.7324 287.802 71.1907 287.557 71.5952C287.312 71.9998 286.972 72.3385 286.566 72.582C286.16 72.8254 285.701 72.9663 285.228 72.9923C284.756 73.0183 284.284 72.9287 283.854 72.7313C283.424 72.5339 283.048 72.2346 282.76 71.8593C282.47 72.2345 282.093 72.533 281.66 72.7285C281.228 72.924 280.754 73.0106 280.281 72.9808C279.807 72.951 279.348 72.8056 278.944 72.5573C278.54 72.3091 278.202 71.9657 277.962 71.557C277.721 71.1484 277.585 70.687 277.564 70.2134C277.543 69.7397 277.639 69.2682 277.843 68.8402C278.047 68.4121 278.353 68.0406 278.734 67.7581C279.115 67.4756 279.56 67.2907 280.029 67.2197H280.036ZM244.867 54.0446L230.356 29.1612H251.239C249.422 37.4375 245.489 54.9657 245.489 54.9657L244.867 54.0446ZM319.861 55.4433C319.861 55.4433 316.597 39.1228 315.122 30.9352C314.726 29.0862 316.215 29.0111 316.829 28.9975C323.166 28.8542 329.503 28.9088 336.783 28.9088C331.238 38.3313 320.155 57.8245 320.155 57.8245L319.861 55.4433Z" fill="white"/>
<path d="M356.464 90.8408H346.514V44.7039C349.485 44.7039 352.332 44.4378 355.077 44.8404C356.136 44.9973 357.276 46.5393 357.857 47.706C362.405 56.9239 366.823 66.1963 371.596 76.1032C374.758 69.7169 377.646 63.9106 380.515 58.0906C382.215 54.6382 383.97 51.1994 385.513 47.6787C386.572 45.2634 388.115 44.5402 390.765 44.6425C392.704 44.7244 394.575 44.6903 396.747 44.6903V90.8067H387.193V68.018L386.381 69.3826C386.381 69.3826 383.936 74.1587 382.754 76.5876C380.61 80.9475 378.5 85.3347 376.356 89.6946C376.165 90.1969 375.821 90.6266 375.373 90.9227C372.177 92.3828 367.574 90.5065 365.997 87.2588C363.053 81.1863 360.049 75.1412 356.436 69.1711L356.464 90.8408Z" fill="white"/>
<path d="M555.182 90.8614V81.8005H584.546V69.5943H577.246C572.582 69.5943 567.917 69.5943 563.253 69.5943C557.196 69.5397 555.011 67.3632 554.99 61.4067C554.99 57.9952 554.922 54.5838 554.99 51.1723C555.1 47.4196 557.449 44.7928 561.136 44.7519C572.165 44.629 583.187 44.7041 594.516 44.7041V53.9015H565.152C565.029 55.0614 565.049 56.4191 565.022 57.1901C564.926 60.4379 565.35 61.0451 568.832 60.8813C574.978 60.588 581.124 60.7585 587.27 60.8131C592.535 60.8609 594.782 63.1056 594.83 68.3184C594.88 73.3219 594.88 78.3254 594.83 83.3289C594.782 88.3779 592.098 91.0525 587.038 91.0661C577.478 91.0661 567.917 91.0661 558.357 91.0661C557.353 91.0252 556.363 90.9228 555.182 90.8614Z" fill="white"/>
<path d="M456.062 44.7519V53.7855H426.274V60.7722H437.726C441.707 60.7722 445.696 60.6903 449.677 60.82C454.04 60.9632 456.096 63.1261 456.144 67.4996C456.198 73.19 456.205 78.8803 456.144 84.557C456.096 87.8935 453.487 90.9229 450.319 90.957C439.078 91.073 427.831 90.9979 416.386 90.9979V81.7187H446.016V69.5943C439.317 69.5943 432.741 69.5943 426.172 69.5943C417.977 69.5943 416.181 67.7726 416.181 59.5577C416.181 56.8285 416.079 54.0993 416.236 51.3702C416.448 47.7403 418.735 44.8679 421.979 44.8201C433.219 44.6495 444.466 44.7519 456.062 44.7519Z" fill="white"/>
<path d="M196.67 53.6626V60.7244H222.892V69.5396H196.67V81.589H222.913V90.7863C222.018 90.8682 221.048 91.0251 220.086 91.0251C211.436 91.0251 202.786 91.0251 194.136 91.0251C189.301 91.0251 186.488 88.3301 186.46 83.5199C186.401 73.058 186.401 62.5961 186.46 52.1343C186.46 47.8631 188.994 44.8064 192.852 44.7518C202.734 44.6085 212.622 44.704 222.803 44.704V53.6626H196.67Z" fill="white"/>
<path d="M121.437 47.8972H113.153V47.0102H123.315V46.0619H113.939L113.898 44.6973H119.108C126.34 44.6973 126.347 44.6973 129.092 51.4452C134.222 64.0267 139.342 76.6105 144.45 89.1966C144.626 89.7938 144.761 90.4025 144.853 91.0183C141.397 91.0183 138.167 91.1343 134.951 90.9297C134.268 90.8887 133.38 89.8039 133.059 89.0056C129.645 80.4973 129.645 80.4905 120.528 80.4905H116.431C110.545 80.4905 110.545 80.4905 108.476 85.8193C106.406 91.148 106.427 91.0456 100.896 91.0456H95.255L110.627 52.8371L117.319 52.4413L117.36 51.5612L112.074 51.2678V50.7151H119.367V49.9578L112.73 49.6166V48.8593H121.553L121.437 47.8972ZM114.54 70.9588H125.746C123.95 66.4625 122.263 62.2596 120.221 57.1492L114.54 70.9588Z" fill="white"/>
<path d="M184.077 81.6436V91.0388H178.068C170.44 91.0388 162.812 91.0388 155.191 91.0388C150.555 91.0388 147.721 88.3642 147.68 83.7041C147.593 73.124 147.593 62.5415 147.68 51.9569C147.68 48.1428 150.008 44.9497 153.259 44.8814C163.461 44.6699 173.677 44.7996 184.064 44.7996V53.7513H157.855V81.6436H184.077Z" fill="white"/>
<path d="M470.662 90.841H461.026C460.937 89.913 460.787 89.0397 460.787 88.1732C460.787 76.2421 460.787 64.311 460.787 52.3799C460.787 47.0375 463.123 44.7177 468.476 44.6973C477.887 44.6973 487.303 44.6973 497 44.6973V53.7855H470.928C470.836 54.8244 470.807 55.8679 470.839 56.9104C470.88 60.6835 471.187 61.0041 474.622 60.854C481.984 60.5879 489.359 60.7722 497 60.7722V69.526H470.662V90.841Z" fill="white"/>
<path d="M552.122 44.8882V53.758H538.164V90.7453H528.065V53.9013H512.317V44.8882H552.122Z" fill="white"/>
<path d="M68.4451 69.5942V90.8272H58.8301V52.8779H98.0548C98.0548 56.8762 98.3143 60.9359 97.966 64.9478C97.7202 67.7793 94.777 69.5123 90.905 69.5669C84.7591 69.6488 78.6132 69.5669 72.4673 69.5669L68.4451 69.5942ZM88.0301 60.7243V54.1743H68.4314C68.4314 55.9346 68.2402 57.4288 68.5066 58.8276C68.65 59.5508 69.5992 60.6561 70.2001 60.6698C76.066 60.8062 81.9456 60.7243 88.0301 60.7243Z" fill="white"/>
<path d="M499.52 44.8677H509.026V90.7453H499.52V44.8677Z" fill="white"/>
<path d="M401.65 90.834V44.9019H411.21V90.834H401.65Z" fill="white"/>
<path d="M295.373 40.9378L276.635 8.18759L277.932 7.46436C284.174 18.3811 290.42 29.2978 296.671 40.2146L295.373 40.9378Z" fill="white"/>
<path d="M53.2647 47.7607H15.0234V47.0784H53.1883L53.2647 47.7607Z" fill="white"/>
<path d="M58.7828 47.0784H96.969V47.7607H58.7277L58.7828 47.0784Z" fill="white"/>
<path d="M58.7828 49.1252H96.969V49.8075H58.7277L58.7828 49.1252Z" fill="white"/>
<path d="M58.7828 51.1721H96.969V51.8544H58.7277L58.7828 51.1721Z" fill="white"/>
<path d="M53.3876 45.7958H17.7549V45.2227H53.3534L53.3876 45.7958Z" fill="white"/>
<path d="M58.9257 45.2295H94.7428V45.7958H58.8916L58.9257 45.2295Z" fill="white"/>
</svg>
