<svg width="394" height="87" viewBox="0 0 394 87" fill="none" xmlns="http://www.w3.org/2000/svg">
<path d="M9.3186 34.3662C11.9153 34.4287 11.0424 34.3659 11.9153 34.4287C18.8428 34.4555 25.7703 34.4287 32.6933 34.4287H35.0352V35.0848H15.817V39.6283C16.6439 39.6684 17.4349 39.7443 18.226 39.7488C22.3959 39.7488 26.5658 39.7175 30.7402 39.7488C33.6408 39.7845 35.2095 41.2573 35.2542 44.1048C35.3347 47.7497 35.3347 51.3961 35.2542 55.044C35.1872 57.9138 33.4665 59.5071 30.548 59.5071C23.473 59.5071 16.398 59.5071 9.32306 59.5071V53.2587H28.7647V45.5241C24.1702 45.5241 19.7277 45.4661 15.2852 45.5509C12.8583 45.5955 10.7577 45.1403 9.32306 42.9935L9.3186 34.3662Z" fill="white"/>
<path d="M9.3186 32.2726C9.31418 32.2269 9.31949 32.1808 9.33419 32.1373C9.34888 32.0937 9.37262 32.0538 9.40385 32.0201C9.43508 31.9864 9.47309 31.9596 9.5154 31.9416C9.55771 31.9236 9.60335 31.9147 9.64933 31.9156C17.8372 31.9156 26.7401 31.9156 34.9324 31.9156V32.4601L9.3186 32.2726Z" fill="white"/>
<path d="M34.8609 33.6968V33.0274L9.38562 33.0273C9.38563 33.5093 9.38562 33.3249 9.38563 33.5093C14.3324 33.6224 26.3433 33.6968 34.8609 33.6968Z" fill="white"/>
<path d="M206.073 17.585C206.296 14.7241 204.562 13.5414 202.497 12.4658C199.735 11.0376 197.08 9.40407 194.381 7.85536L189.438 5.00342C189.326 5.16409 189.21 5.3203 189.094 5.48097C192.723 11.5821 196.325 17.6966 199.986 23.7799C202.113 27.3147 204.142 30.9209 206.582 34.2325C207.825 35.9151 208.719 39.3875 207.512 41.2977C205.921 43.797 204.459 46.3812 202.976 48.9475C199.871 54.33 196.775 59.7171 193.688 65.1085C191.087 69.6431 188.495 74.1821 185.545 79.337L162.568 39.1688L161.813 38.0842L166.229 39.9364C167.306 38.0931 168.231 36.3257 169.357 34.6744C170.354 33.1391 170.729 31.6885 170.059 29.9033C169.165 27.5467 168.494 25.1143 167.775 22.7042C167.23 20.8877 166.76 19.0489 166.255 17.219C166.903 17.2726 167.113 17.4556 167.248 17.6877C170.936 24.1027 174.615 30.5222 178.282 36.9461C180.003 39.9677 179.936 39.9364 177.143 41.985C176.2 42.6768 174.908 43.6096 174.787 44.5647C174.457 47.1087 174.676 49.7196 174.676 52.3797C179.82 48.8538 183.659 52.1208 185.451 56.276C186.345 50.0767 192.897 50.0008 195.074 51.188C195.722 45.6001 196.276 45.078 193.992 40.8692C192.419 37.9637 191.092 34.9288 189.465 32.059C185.228 24.5832 180.852 17.1833 176.615 9.70757C175.905 8.45343 175.315 8.36863 174.175 9.06934C172.088 10.3413 169.884 11.4259 167.815 12.7247C166.801 13.3584 165.259 14.2287 165.187 15.0946C164.968 17.71 163.525 17.71 161.567 17.6564C157.848 17.5493 154.121 17.6163 150.394 17.6296C149.848 17.6296 149.299 17.7278 148.449 17.8082L185.545 81.5998L222.775 17.585H206.073ZM183.279 43.9711C183.218 43.7913 183.187 43.603 183.185 43.4132C183.185 42.9089 183.386 42.4253 183.743 42.0688C184.1 41.7122 184.584 41.5119 185.089 41.5119C185.594 41.5119 186.078 41.7122 186.435 42.0688C186.793 42.4253 186.993 42.9089 186.993 43.4132C186.99 43.6042 186.958 43.7937 186.899 43.9756C187.204 44.0286 187.492 44.1552 187.737 44.3443C187.982 44.5335 188.178 44.7795 188.306 45.0611C188.434 45.3427 188.492 45.6512 188.474 45.9601C188.455 46.2689 188.362 46.5686 188.202 46.8333C188.041 47.0979 187.819 47.3195 187.553 47.4787C187.288 47.638 186.987 47.7301 186.678 47.7471C186.368 47.7642 186.06 47.7056 185.778 47.5764C185.497 47.4473 185.251 47.2515 185.062 47.006C184.873 47.2515 184.625 47.4467 184.342 47.5746C184.059 47.7025 183.749 47.7591 183.44 47.7396C183.13 47.7201 182.829 47.625 182.565 47.4626C182.3 47.3003 182.079 47.0756 181.922 46.8083C181.764 46.541 181.675 46.2392 181.661 45.9294C181.648 45.6195 181.711 45.3111 181.844 45.0311C181.978 44.7511 182.178 44.5081 182.427 44.3233C182.677 44.1385 182.968 44.0175 183.275 43.9711H183.279ZM160.262 35.3528L150.765 19.0757H164.432C163.243 24.4895 160.669 35.9553 160.669 35.9553L160.262 35.3528ZM209.344 36.2677C209.344 36.2677 207.208 25.5919 206.243 20.2361C205.983 19.0266 206.958 18.9775 207.36 18.9686C211.507 18.8749 215.655 18.9106 220.419 18.9106C216.79 25.0742 209.537 37.8254 209.537 37.8254L209.344 36.2677Z" fill="white"/>
<path d="M233.3 59.4222H226.788V29.2425C228.732 29.2425 230.596 29.0684 232.393 29.3317C233.086 29.4344 233.832 30.443 234.212 31.2062C237.188 37.2359 240.08 43.3014 243.204 49.7818C245.273 45.6043 247.164 41.8062 249.041 37.9991C250.154 35.7408 251.303 33.4914 252.313 31.1884C253.005 29.6084 254.016 29.1353 255.75 29.2023C257.019 29.2558 258.244 29.2335 259.665 29.2335V59.3999H253.412V44.493L252.88 45.3856C252.88 45.3856 251.28 48.5098 250.507 50.0987C249.104 52.9507 247.723 55.8205 246.319 58.6724C246.195 59.001 245.969 59.2821 245.676 59.4758C243.584 60.4309 240.572 59.2035 239.539 57.0791C237.613 53.1069 235.646 49.1525 233.282 45.2473L233.3 59.4222Z" fill="white"/>
<path d="M363.358 59.436V53.509H382.576V45.5244H377.799C374.746 45.5244 371.693 45.5244 368.641 45.5244C364.677 45.4887 363.246 44.065 363.233 40.1686C363.233 37.9371 363.188 35.7055 363.233 33.4739C363.304 31.0192 364.842 29.3009 367.255 29.2741C374.473 29.1938 381.687 29.2429 389.102 29.2429V35.2592H369.883C369.803 36.0179 369.816 36.9061 369.798 37.4104C369.736 39.5349 370.013 39.9321 372.292 39.825C376.315 39.6331 380.337 39.7446 384.36 39.7804C387.805 39.8116 389.276 41.28 389.307 44.6898C389.34 47.9628 389.34 51.2357 389.307 54.5087C389.276 57.8114 387.519 59.561 384.208 59.5699C377.951 59.5699 371.693 59.5699 365.436 59.5699C364.779 59.5431 364.131 59.4762 363.358 59.436Z" fill="white"/>
<path d="M298.486 29.2738V35.183H278.99V39.7533H286.485C289.091 39.7533 291.701 39.6997 294.307 39.7845C297.163 39.8782 298.508 41.2931 298.539 44.1539C298.575 47.8762 298.579 51.5985 298.539 55.3118C298.508 57.4943 296.801 59.4759 294.727 59.4982C287.37 59.5741 280.009 59.525 272.519 59.525V53.4551H291.911V45.5241C287.527 45.5241 283.223 45.5241 278.923 45.5241C273.56 45.5241 272.385 44.3325 272.385 38.9588C272.385 37.1736 272.318 35.3883 272.42 33.6031C272.559 31.2287 274.056 29.3497 276.179 29.3185C283.536 29.2069 290.897 29.2738 298.486 29.2738Z" fill="white"/>
<path d="M128.717 35.1027V39.722H145.88V45.4884H128.717V53.3703H145.893V59.3866C145.308 59.4402 144.673 59.5428 144.043 59.5428C138.382 59.5428 132.72 59.5428 127.059 59.5428C123.895 59.5428 122.053 57.7799 122.036 54.6334C121.997 47.7899 121.997 40.9464 122.036 34.1029C122.036 31.309 123.694 29.3095 126.219 29.2738C132.686 29.1801 139.158 29.2426 145.821 29.2426V35.1027H128.717Z" fill="white"/>
<path d="M79.4785 31.331H74.0571V30.7508H80.7075V30.1304H74.5711L74.5443 29.2378H77.9544C82.6875 29.2378 82.6919 29.2378 84.4886 33.6518C87.8466 41.8819 91.1971 50.1134 94.5402 58.3464C94.6557 58.737 94.7438 59.1352 94.8039 59.538C92.5424 59.538 90.4284 59.6139 88.3233 59.48C87.8764 59.4532 87.2954 58.7436 87.0853 58.2214C84.8506 52.6559 84.8506 52.6514 78.884 52.6514H76.2024C72.3498 52.6514 72.3498 52.6514 70.9956 56.1371C69.6414 59.6228 69.6548 59.5559 66.0347 59.5559H62.343L72.4035 34.5623L76.7834 34.3035L76.8103 33.7277L73.351 33.5358V33.1743H78.1242V32.6789L73.78 32.4557V31.9603H79.5544L79.4785 31.331ZM74.9644 46.4164H82.2986C81.1232 43.4752 80.0192 40.7259 78.6829 37.383L74.9644 46.4164Z" fill="white"/>
<path d="M120.476 53.406V59.5517H116.543C111.551 59.5517 106.558 59.5517 101.57 59.5517C98.5357 59.5517 96.681 57.8022 96.6542 54.7538C96.5975 47.833 96.5975 40.9107 96.6542 33.9869C96.6542 31.492 98.1782 29.4032 100.306 29.3586C106.983 29.2202 113.669 29.305 120.467 29.305V35.1607H103.313V53.406H120.476Z" fill="white"/>
<path d="M308.041 59.422H301.735C301.677 58.815 301.578 58.2437 301.578 57.6769C301.578 49.8724 301.578 42.0678 301.578 34.2633C301.578 30.7686 303.107 29.2512 306.611 29.2378C312.77 29.2378 318.933 29.2378 325.279 29.2378V35.1827H308.215C308.155 35.8623 308.136 36.5449 308.157 37.2268C308.184 39.6949 308.385 39.9047 310.633 39.8065C315.451 39.6324 320.278 39.753 325.279 39.753V45.4792H308.041V59.422Z" fill="white"/>
<path d="M361.356 29.3633V35.1654H352.221V59.3601H345.61V35.2591H335.304V29.3633H361.356Z" fill="white"/>
<path d="M44.7963 45.524V59.4133H38.5034V34.5894H64.1754C64.1754 37.2048 64.3452 39.8603 64.1173 42.4847C63.9564 44.3369 62.0301 45.4705 59.496 45.5062C55.4736 45.5598 51.4512 45.5062 47.4287 45.5062L44.7963 45.524ZM57.6144 39.722V35.4374H44.7874C44.7874 36.5888 44.6622 37.5663 44.8365 38.4812C44.9304 38.9543 45.5516 39.6773 45.9449 39.6863C49.7841 39.7755 53.6322 39.722 57.6144 39.722Z" fill="white"/>
<path d="M326.928 29.3496H333.15V59.3598H326.928V29.3496Z" fill="white"/>
<path d="M262.874 59.4179V29.3721H269.131V59.4179H262.874Z" fill="white"/>
<path d="M193.317 26.779L181.053 5.35591L181.903 4.88281C185.988 12.0238 190.075 19.1649 194.166 26.3059L193.317 26.779Z" fill="white"/>
<path d="M34.8609 31.2417H9.83257V30.7954H34.811L34.8609 31.2417Z" fill="white"/>
<path d="M38.4725 30.7954H63.4648V31.2417H38.4364L38.4725 30.7954Z" fill="white"/>
<path d="M38.4725 32.1343H63.4648V32.5806H38.4364L38.4725 32.1343Z" fill="white"/>
<path d="M38.4725 33.4731H63.4648V33.9195H38.4364L38.4725 33.4731Z" fill="white"/>
<path d="M34.9414 29.9565H11.6203V29.5815H34.919L34.9414 29.9565Z" fill="white"/>
<path d="M38.566 29.5859H62.0078V29.9564H38.5437L38.566 29.5859Z" fill="white"/>
</svg>
