<svg width="30" height="30" viewBox="0 0 30 30" fill="none" xmlns="http://www.w3.org/2000/svg">
<path d="M30 2.67857C30 1.19925 28.8008 0 27.3214 0H2.67857C1.19925 0 0 1.19925 0 2.67857V27.3214C0 28.8008 1.19925 30 2.67857 30H27.3214C28.8008 30 30 28.8008 30 27.3214V2.67857ZM12.9643 20.7256C12.9643 21.8203 12.0769 22.7078 10.9821 22.7078C9.88736 22.7078 9 21.8203 9 20.7256V9.27439C9 8.17971 9.88736 7.29225 10.9821 7.29225C12.0769 7.29225 12.9643 8.17971 12.9643 9.27439V20.7256ZM21 20.7256C21 21.8203 20.1126 22.7078 19.0179 22.7078C17.9231 22.7078 17.0357 21.8203 17.0357 20.7256V9.27439C17.0357 8.17971 17.9231 7.29225 19.0179 7.29225C20.1126 7.29225 21 8.17971 21 9.27439V20.7256Z" fill="#DB03E3"/>
</svg>
