<svg width="58" height="58" viewBox="0 0 58 58" fill="none" xmlns="http://www.w3.org/2000/svg">
<path d="M56.1521 28.8394H52.879C52.5274 28.8394 52.1958 29.0028 51.9815 29.282L50.7023 30.9476L48.1424 29.1116V25.3161C48.1424 24.9679 47.9824 24.6389 47.7083 24.4242L44.1061 21.6011C43.765 21.3339 43.3017 21.2849 42.9125 21.4746C42.5234 21.6644 42.2763 22.0597 42.2763 22.493V24.9047L38.7145 22.35L35.4319 16.2254L33.0346 5.10706C32.999 4.94212 32.924 4.78194 32.8203 4.64906L29.5343 0.435793C29.3199 0.160746 28.9906 0 28.642 0C28.2933 0 27.9642 0.160746 27.7497 0.435793L24.4637 4.64906C24.3601 4.78194 24.2849 4.94223 24.2494 5.10706L23.6866 7.71672C23.5547 8.32821 23.9433 8.93098 24.5543 9.06295C25.1653 9.1947 25.7678 8.80614 25.8997 8.19454L26.0317 7.58248L26.5449 8.0816C26.7561 8.28698 27.0391 8.40196 27.3338 8.40196H29.9501C30.2447 8.40196 30.5277 8.28698 30.7389 8.0816L31.2522 7.58248L33.2525 16.8591C33.2748 16.9625 33.3114 17.0623 33.3615 17.1555L36.7097 23.4028V29.4436H35.377V26.1092C35.377 25.9208 35.3301 25.7353 35.2404 25.5697L29.6237 15.1907C29.2018 14.4166 28.056 14.4148 27.6331 15.1907L22.0164 25.5697C21.9267 25.7353 21.8797 25.9208 21.8797 26.1092V29.4436H20.5813V23.4019L23.9228 17.1547C24.2178 16.6032 24.0102 15.9167 23.4591 15.6214C22.9077 15.326 22.2217 15.534 21.9268 16.0855L18.5753 22.3513L15.1627 24.7977V22.4928C15.1627 22.0595 14.9156 21.6641 14.5264 21.4744C14.1372 21.2848 13.6739 21.3338 13.3327 21.6009L9.73059 24.424C9.45665 24.6388 9.2966 24.9676 9.2966 25.3159V29.0024L6.58237 30.9484L5.30257 29.2818C5.08829 29.0028 4.75674 28.8393 4.40504 28.8393H1.13196C0.506894 28.8393 0 29.3464 0 29.9721V45.0857C0 45.7114 0.506894 46.2185 1.13196 46.2185H5.86618C6.49125 46.2185 6.99814 45.7114 6.99814 45.0857V44.2104L15.3739 42.8136L10.2816 53.0689C10.2038 53.2255 10.1633 53.3981 10.1633 53.573V56.8672C10.1633 57.3244 10.438 57.7367 10.8595 57.9127C11.0003 57.9715 11.1483 58 11.2951 58C11.5877 58 11.8755 57.8864 12.0918 57.6721L19.6635 50.1691L23.871 52.321C23.8854 52.3284 23.9005 52.3337 23.9151 52.3404C23.9332 52.3486 23.9511 52.3569 23.9697 52.3643C23.9958 52.3747 24.0225 52.3833 24.0494 52.3917C24.0676 52.3973 24.0856 52.4036 24.1042 52.4083C24.134 52.416 24.1645 52.4215 24.1949 52.4267C24.2111 52.4295 24.227 52.4332 24.2434 52.4354C24.2906 52.4414 24.3382 52.4449 24.3861 52.4449H32.6059C32.6528 52.4449 32.6994 52.4414 32.7456 52.4356C32.7611 52.4337 32.7762 52.4303 32.7915 52.4278C32.822 52.4227 32.8523 52.417 32.8822 52.4095C32.8996 52.405 32.9167 52.3997 32.9339 52.3945C32.9612 52.3862 32.9882 52.3771 33.0149 52.3667C33.032 52.3601 33.0489 52.3532 33.0657 52.3457C33.0761 52.341 33.0869 52.3375 33.0972 52.3327L37.6132 50.1548L45.2018 57.6721C45.418 57.8863 45.7058 57.9999 45.9984 57.9999C46.1452 57.9999 46.2931 57.9713 46.4341 57.9125C46.8556 57.7365 47.1301 57.3242 47.1301 56.8671V53.573C47.1301 53.3981 47.0897 53.2254 47.0118 53.0688L41.918 42.8137L50.2858 44.2102V45.0857C50.2858 45.7114 50.7927 46.2185 51.4178 46.2185H56.152C56.7771 46.2185 57.284 45.7114 57.284 45.0857V29.9722C57.2841 29.3465 56.7772 28.8394 56.1521 28.8394ZM29.4907 6.13645H27.7932L26.8732 5.24186L28.642 2.97397L30.4108 5.24186L29.4907 6.13645ZM45.8785 25.8678V29.6917C45.8785 29.6923 45.8784 29.6927 45.8784 29.6933V32.035L44.5405 30.9902V27.1105C44.5405 27.1087 44.5402 27.1068 44.5402 27.1049V24.8189L45.8785 25.8678ZM33.1131 27.4708L29.7604 23.4833V20.2007L33.1131 26.3962V27.4708ZM24.1437 26.3965L27.4964 20.2009V23.4835L24.1437 27.471V26.3965ZM23.0102 31.7093C23.3408 31.7093 23.665 31.5591 23.8779 31.3058L28.6285 25.6559L33.3791 31.3058C33.5921 31.5591 33.9162 31.7093 34.2468 31.7093H36.7099V36.6532L32.6926 40.3281H24.4018L20.5813 36.6689V31.7095H23.0102V31.7093ZM12.8987 24.819V27.001C12.8987 27.0017 12.8986 27.0023 12.8986 27.0029V30.9902L11.5605 32.035V29.5845C11.5605 29.584 11.5604 29.5835 11.5604 29.5829V25.8678L12.8987 24.819ZM4.73421 43.953H2.26393V31.105H3.84732L4.73421 32.2599V43.953ZM6.99882 41.9136V33.4369L9.2966 31.7896V34.3555C9.2966 34.7741 9.53884 35.1805 9.91669 35.3661C10.3059 35.5573 10.7808 35.5179 11.1252 35.2489L14.727 32.4367C15.002 32.2221 15.1628 31.8925 15.1628 31.5435V27.5848L18.3172 25.3235V36.8864L16.6175 40.3094L6.99882 41.9136ZM12.4273 53.8391L18.3171 41.9776V48.3148L12.4273 54.1512V53.8391ZM20.581 39.8047L23.1646 42.2793C23.3752 42.4811 23.6557 42.5938 23.9473 42.5938H33.132C33.4147 42.5938 33.6871 42.4879 33.8958 42.2971L36.7097 39.7228V48.0758L33.0529 49.8392L31.0512 46.4352C30.8478 46.0893 30.4768 45.877 30.0757 45.877H26.958C26.5597 45.877 26.1909 46.0863 25.9865 46.4282L23.9583 49.8213L20.581 48.0941V39.8047ZM26.3822 50.1795L27.5999 48.1426H29.4285L30.6262 50.1795H26.3822ZM44.8662 54.152L38.9736 48.3148V41.9763L44.8662 53.8392V54.152ZM40.675 40.3095L38.9747 36.8868V25.324L42.2763 27.6921V31.5435C42.2763 31.8925 42.437 32.2221 42.7121 32.4367L46.3141 35.2489C46.6585 35.5176 47.1332 35.5574 47.5226 35.3661C47.9004 35.1803 48.1427 34.7741 48.1427 34.3555V31.8991L50.2862 33.4364V41.9134L40.675 40.3095ZM55.0201 43.953H52.5499V43.2588C52.5499 43.2561 52.5503 43.2535 52.5503 43.2508V32.855C52.5503 32.8525 52.5499 32.8501 52.5499 32.8476V32.26L53.4367 31.1051H55.0201V43.953Z" fill="white"/>
<path d="M22.9018 12.76C23.0854 13.2011 23.5423 13.4905 24.0209 13.4575C24.4805 13.4257 24.8829 13.1122 25.0242 12.6733C25.1692 12.2231 25.0112 11.7159 24.6362 11.4283C24.2609 11.1404 23.7323 11.1185 23.3349 11.3748C22.8814 11.6673 22.6936 12.2602 22.9018 12.76Z" fill="white"/>
</svg>
