<svg width="57" height="44" viewBox="0 0 57 44" fill="none" xmlns="http://www.w3.org/2000/svg">
<path fill-rule="evenodd" clip-rule="evenodd" d="M56.2132 33.5251C55.1109 34.9119 52.4103 35.9012 52.4103 35.9012L32.3203 43.0971V37.7903L47.1051 32.5371C48.7829 31.9376 49.0406 31.0902 47.6768 30.6454C46.3156 30.1993 43.8508 30.3271 42.1717 30.9291L32.3203 34.3891V28.8815L32.8881 28.6898C32.8881 28.6898 35.7348 27.6852 39.7377 27.243C43.7406 26.8033 48.6419 27.303 52.4897 28.7576C56.8258 30.1239 57.3142 32.1383 56.2132 33.5251ZM34.2326 24.4885V10.9171C34.2326 9.32327 33.9378 7.85595 32.4382 7.44055C31.2898 7.07372 30.5771 8.13714 30.5771 9.72972V43.7158L21.3858 40.8067V0.28418C25.2938 1.00761 30.9873 2.71778 34.0481 3.74669C41.8321 6.41164 44.4712 9.72844 44.4712 17.2018C44.4712 24.486 39.962 27.2468 34.2326 24.4885ZM4.52068 37.2355C0.0691997 35.9855 -0.671645 33.3806 1.35735 31.8801C3.23253 30.4946 6.42149 29.4516 6.42149 29.4516L19.6003 24.7787V30.106L10.1167 33.4906C8.44151 34.09 8.18388 34.9387 9.54509 35.3835C10.9076 35.8283 13.3736 35.7018 15.0514 35.101L19.6003 33.4548V38.221C19.3119 38.2721 18.9902 38.3232 18.6929 38.3731C14.1427 39.1144 9.29643 38.8051 4.52068 37.2355ZM53.2857 39.3458C53.8612 39.3458 54.4008 39.5682 54.8071 39.9785C55.2134 40.3824 55.4377 40.9217 55.4377 41.4943C55.4377 42.0695 55.2134 42.6063 54.8071 43.0102C54.4008 43.418 53.8612 43.6404 53.2857 43.6404C52.7102 43.6404 52.1718 43.418 51.7643 43.0102C51.3579 42.6063 51.1349 42.0695 51.1349 41.4943C51.1349 40.3108 52.0988 39.3458 53.2857 39.3458ZM51.4964 41.4943C51.4964 41.9711 51.6822 42.4197 52.0206 42.7546C52.3577 43.0946 52.8089 43.2786 53.2857 43.2786C54.2739 43.2786 55.075 42.4785 55.075 41.4943C55.075 41.0163 54.8904 40.5677 54.5508 40.2315C54.2137 39.8915 53.7625 39.7088 53.2857 39.7088C52.8089 39.7088 52.3577 39.8915 52.0206 40.2315C51.6822 40.5677 51.4964 41.0163 51.4964 41.4943ZM53.9355 40.3376C54.1714 40.4411 54.2906 40.6405 54.2906 40.9243C54.2906 41.07 54.2598 41.1927 54.197 41.2886C54.1521 41.3576 54.088 41.4138 54.0163 41.4624C54.0727 41.4956 54.1226 41.5352 54.1598 41.5813C54.2111 41.6477 54.2406 41.7538 54.2444 41.8982L54.256 42.2037C54.2598 42.2855 54.2649 42.3482 54.2778 42.3865C54.2906 42.4427 54.3149 42.4785 54.3457 42.49L54.3777 42.5054V42.5399V42.5923V42.6447H54.3252H53.9445H53.9137L53.8984 42.6179C53.8855 42.5923 53.8766 42.5629 53.8676 42.5246C53.8612 42.49 53.8548 42.43 53.8509 42.3379L53.8317 41.9583C53.8266 41.8267 53.7817 41.7449 53.6971 41.7014C53.6446 41.6772 53.5574 41.6656 53.4395 41.6656H52.7871V42.5923V42.6447H52.7332H52.4231H52.3705V42.5923V40.3082V40.2558H52.4231H53.4831C53.6651 40.2558 53.8176 40.2827 53.9355 40.3376L53.9355 40.3376ZM52.7871 41.3001H53.451C53.5843 41.3001 53.6907 41.2758 53.7663 41.2259C53.8355 41.1761 53.8689 41.0853 53.8689 40.9537C53.8689 40.8105 53.8214 40.7172 53.7215 40.6674C53.6664 40.6406 53.5894 40.6252 53.492 40.6252H52.7871V41.3001Z" fill="white"/>
</svg>
