<svg width="70" height="71" viewBox="0 0 70 71" fill="none" xmlns="http://www.w3.org/2000/svg">
<path d="M54.27 11.6623C54.4804 9.01049 52.8473 7.91417 50.9026 6.91714C48.3013 5.59329 45.801 4.07913 43.2586 2.64357L38.6031 0C38.4979 0.148934 38.3885 0.29373 38.279 0.442664C41.6969 6.09801 45.0896 11.7658 48.537 17.4046C50.5406 20.6811 52.4516 24.0238 54.7498 27.0935C55.92 28.6532 56.7619 31.8718 55.6254 33.6425C54.1269 35.9592 52.7505 38.3546 51.353 40.7334C48.4289 45.7226 45.5133 50.7161 42.6061 55.7136C40.1563 59.9169 37.715 64.1242 34.9369 68.9025L13.2971 31.6691L12.5857 30.6638L16.7444 32.3807C17.7589 30.6721 18.6302 29.0338 19.6909 27.5031C20.6296 26.0799 20.9832 24.7354 20.3518 23.0806C19.5099 20.8962 18.8785 18.6415 18.2008 16.4075C17.6873 14.7238 17.2453 13.0193 16.7697 11.3231C17.38 11.3727 17.5779 11.5424 17.7041 11.7575C21.1782 17.7038 24.6424 23.6543 28.0968 29.6088C29.7174 32.4096 29.6542 32.3807 27.0235 34.2796C26.1353 34.9208 24.9188 35.7855 24.8052 36.6708C24.4937 39.0289 24.6999 41.4491 24.6999 43.9148C29.5448 40.6465 33.1606 43.6748 34.8485 47.5264C35.6903 41.78 41.8611 41.7097 43.911 42.8102C44.5213 37.6306 45.0433 37.1465 42.8924 33.2453C41.4107 30.5521 40.1606 27.7389 38.6284 25.0788C34.638 18.1492 30.5171 11.29 26.5268 4.36045C25.8575 3.19794 25.3019 3.11933 24.2285 3.76885C22.2628 4.94791 20.1876 5.95321 18.2387 7.15709C17.2832 7.74455 15.831 8.55128 15.7637 9.35386C15.5574 11.7782 14.1978 11.7782 12.3542 11.7285C8.85208 11.6292 5.34155 11.6913 1.83103 11.7037C1.3175 11.7037 0.799759 11.7947 0 11.8692L34.9369 71L70 11.6623H54.27ZM32.8028 36.1206C32.7455 35.9539 32.7157 35.7793 32.7144 35.6034C32.7144 35.136 32.9033 34.6877 33.2396 34.3572C33.5759 34.0267 34.0319 33.841 34.5075 33.841C34.9831 33.841 35.4392 34.0267 35.7755 34.3572C36.1117 34.6877 36.3007 35.136 36.3007 35.6034C36.2973 35.7805 36.2675 35.9561 36.2123 36.1247C36.4997 36.1738 36.7706 36.2912 37.0015 36.4665C37.2323 36.6419 37.4161 36.8699 37.537 37.1309C37.6579 37.3919 37.7121 37.6779 37.695 37.9642C37.6779 38.2505 37.59 38.5283 37.439 38.7736C37.2879 39.0189 37.0782 39.2243 36.8281 39.3719C36.5779 39.5195 36.2949 39.6049 36.0036 39.6207C35.7123 39.6365 35.4215 39.5822 35.1564 39.4625C34.8912 39.3427 34.6599 39.1613 34.4823 38.9338C34.3035 39.1613 34.0707 39.3422 33.8042 39.4608C33.5378 39.5793 33.2458 39.6318 32.9539 39.6137C32.662 39.5956 32.379 39.5075 32.1299 39.357C31.8807 39.2065 31.6728 38.9982 31.5245 38.7504C31.3762 38.5027 31.292 38.2229 31.2792 37.9357C31.2665 37.6486 31.3255 37.3627 31.4513 37.1031C31.577 36.8436 31.7656 36.6183 32.0005 36.447C32.2353 36.2757 32.5094 36.1636 32.7986 36.1206H32.8028ZM11.1251 28.1319L2.18039 13.0441H15.0523C13.9327 18.0623 11.5081 28.6904 11.5081 28.6904L11.1251 28.1319ZM57.3512 28.98C57.3512 28.98 55.3391 19.0842 54.4299 14.1197C54.1858 12.9986 55.1034 12.9531 55.4823 12.9448C59.3884 12.8579 63.2946 12.891 67.7817 12.891C64.3638 18.6043 57.5322 30.4238 57.5322 30.4238L57.3512 28.98Z" fill="white"/>
</svg>
