<svg width="29" height="29" viewBox="0 0 29 29" fill="none" xmlns="http://www.w3.org/2000/svg">
<path fill-rule="evenodd" clip-rule="evenodd" d="M28.9303 14.5C28.9303 22.5081 22.454 29 14.4651 29C6.47626 29 0 22.5081 0 14.5C0 6.49187 6.47626 0 14.4651 0C22.454 0 28.9303 6.49187 28.9303 14.5ZM12.3619 8.94174L20.1971 13.473C20.5588 13.6543 20.7396 14.0167 20.7396 14.4397C20.7396 14.8626 20.4985 15.2251 20.1369 15.4667L12.3619 19.998C12.181 20.1188 11.94 20.1792 11.7591 20.1792C11.5783 20.1792 11.3372 20.1188 11.1564 19.998C10.7948 19.8167 10.5537 19.3938 10.5537 18.9709V9.96883C10.5537 9.54591 10.7948 9.18344 11.1564 8.94174C11.5181 8.70008 12.0002 8.70008 12.3619 8.94174Z" fill="url(#paint0_linear)"/>
<defs>
<linearGradient id="paint0_linear" x1="14.4651" y1="1.65904" x2="14.4651" y2="27.54" gradientUnits="userSpaceOnUse">
<stop stop-color="#E81576"/>
<stop offset="1" stop-color="#D902EC"/>
</linearGradient>
</defs>
</svg>
