<svg width="29" height="29" viewBox="0 0 29 29" fill="none" xmlns="http://www.w3.org/2000/svg">
<path fill-rule="evenodd" clip-rule="evenodd" d="M28.9298 14.5C28.9298 22.5081 22.4535 29 14.4646 29C6.47577 29 -0.000488281 22.5081 -0.000488281 14.5C-0.000488281 6.49187 6.47577 0 14.4646 0C22.4535 0 28.9298 6.49187 28.9298 14.5ZM12.3614 8.94174L20.1966 13.473C20.5583 13.6543 20.7391 14.0167 20.7391 14.4397C20.7391 14.8626 20.498 15.2251 20.1364 15.4667L12.3614 19.998C12.1806 20.1188 11.9395 20.1792 11.7587 20.1792C11.5778 20.1792 11.3368 20.1188 11.1559 19.998C10.7943 19.8167 10.5532 19.3938 10.5532 18.9709V9.96883C10.5532 9.54591 10.7943 9.18344 11.1559 8.94174C11.5176 8.70008 11.9997 8.70008 12.3614 8.94174Z" fill="white"/>
</svg>
