<svg width="13" height="13" viewBox="0 0 13 13" fill="none" xmlns="http://www.w3.org/2000/svg">
<path d="M12.8717 4.43817C12.7907 4.35724 12.6809 4.3118 12.5663 4.3118L8.68748 4.31233L8.68805 0.431802C8.68805 0.317253 8.64262 0.207431 8.56164 0.126411C8.48062 0.0454344 8.3708 0 8.25625 0L4.74634 0.000525253C4.50801 0.000612795 4.3148 0.193775 4.31476 0.432108L4.31406 4.31294L0.434803 4.31355C0.196425 4.31355 0.00322004 4.5068 0.00317627 4.74514L0.00256348 8.25654C0.00256348 8.37114 0.0479978 8.48091 0.129018 8.56193C0.209995 8.64291 0.319816 8.68834 0.434365 8.68834L4.3134 8.68782L4.31279 12.5683C4.31279 12.6828 4.35831 12.7926 4.43924 12.8736C4.52026 12.9546 4.63008 13.0001 4.74463 13.0001L8.2545 12.9994C8.49284 12.9994 8.68604 12.8061 8.68608 12.5678L8.6867 8.68712L12.5661 8.68642C12.8044 8.68642 12.9976 8.49317 12.9977 8.25484L12.9982 4.74352C12.9981 4.62897 12.9527 4.51919 12.8717 4.43817Z" fill="#DB03E3"/>
</svg>
