<svg width="39" height="39" viewBox="0 0 39 39" fill="none" xmlns="http://www.w3.org/2000/svg">
<g clip-path="url(#clip0)">
<path d="M17.5554 38.9198C14.5513 38.6322 11.5098 37.554 8.89704 35.8502C6.70762 34.4226 6.2132 33.8357 6.2132 32.6644C6.2132 30.3118 8.8014 26.1911 13.2297 21.4937C15.7446 18.8258 19.2478 15.6987 19.6266 15.7834C20.363 15.948 26.2512 21.6883 28.4554 24.3905C31.9411 28.6636 33.5435 32.1623 32.7294 33.7222C32.1106 34.9079 28.2706 37.2254 25.4496 38.1158C23.1244 38.8496 20.0708 39.1606 17.5554 38.9198ZM3.25614 30.2183C1.43679 27.4287 0.517588 24.6824 0.0737933 20.7103C-0.0727488 19.3987 -0.0202357 18.6484 0.406552 15.9563C0.938483 12.601 2.85034 8.7193 5.14761 6.33043C6.12603 5.31299 6.21342 5.28821 7.40605 5.68976C8.85436 6.17739 10.401 7.245 12.7997 9.41278L14.1993 10.6776L13.435 11.6159C9.88739 15.9719 6.14235 22.1462 4.73096 25.9661C3.96368 28.0428 3.6542 30.1273 3.98434 30.9952C4.20724 31.5811 4.0025 31.3627 3.25614 30.2183ZM35.1915 30.6928C35.3712 29.8159 35.1439 28.2054 34.6111 26.5811C33.4573 23.0633 29.6006 16.519 26.0592 12.0696L24.9444 10.6689L26.1505 9.562C27.7253 8.11676 28.8187 7.25137 29.9985 6.51646C30.9294 5.93653 32.2598 5.42315 32.8317 5.42315C33.1842 5.42315 34.4254 6.71055 35.4274 8.11552C36.9793 10.2915 38.121 12.9293 38.6994 15.6753C39.0731 17.4496 39.1043 21.2474 38.7596 23.0173C38.4768 24.4698 37.8795 26.3539 37.2969 27.6317C36.8603 28.5891 35.7745 30.4486 35.2987 31.0537C35.0541 31.3648 35.0539 31.3641 35.1915 30.6928H35.1915ZM17.8771 4.75888C16.243 3.92955 13.7223 3.03932 12.3298 2.79982C11.8416 2.71585 11.0089 2.66903 10.4792 2.69576C9.33034 2.75374 9.38165 2.69369 11.2247 1.82341C12.757 1.09987 14.0352 0.674395 15.7703 0.310272C17.7221 -0.0993404 21.3909 -0.104147 23.3117 0.30039C25.3863 0.737325 27.8293 1.64592 29.2058 2.49259L29.615 2.74422L28.6763 2.69685C26.8109 2.60271 24.0925 3.35589 21.1738 4.77548C20.2935 5.20366 19.5276 5.54565 19.4719 5.53543C19.4161 5.52522 18.6985 5.17577 17.8771 4.75888V4.75888Z" fill="white"/>
</g>
<defs>
<clipPath id="clip0">
<rect width="39" height="39" fill="white"/>
</clipPath>
</defs>
</svg>
