<?xml version="1.0" standalone="no"?>
<!DOCTYPE svg PUBLIC "-//W3C//DTD SVG 20010904//EN"
 "http://www.w3.org/TR/2001/REC-SVG-20010904/DTD/svg10.dtd">
<svg version="1.0" xmlns="http://www.w3.org/2000/svg"
 width="4167.000000pt" height="4167.000000pt" viewBox="0 0 4167.000000 4167.000000"
 preserveAspectRatio="xMidYMid meet">

<g transform="translate(0.000000,4167.000000) scale(0.100000,-0.100000)"
fill="#000000" stroke="none">
<path d="M0 20835 l0 -20835 20835 0 20835 0 0 20835 0 20835 -20835 0 -20835
0 0 -20835z m31644 7061 c919 -477 1668 -1189 2227 -2116 107 -179 301 -575
386 -790 202 -511 316 -974 378 -1530 22 -195 31 -746 16 -961 -89 -1276 -577
-2445 -1419 -3399 -131 -149 -396 -413 -542 -540 -875 -761 -1995 -1254 -3145
-1384 -77 -9 -159 -19 -182 -22 l-43 -5 0 -255 0 -254 255 0 255 0 0 -265 0
-265 -11265 0 -11265 0 1 173 c1 94 4 203 8 241 6 67 8 71 41 90 l35 21 10698
3 10697 2 0 255 0 254 -32 5 c-18 3 -82 8 -143 11 -576 31 -1224 175 -1774
392 -170 67 -391 167 -391 177 0 4 52 110 115 237 73 146 120 229 128 226 7
-3 76 -33 155 -66 1201 -511 2491 -579 3676 -194 494 160 885 350 1316 638
1020 682 1735 1651 2083 2825 373 1254 260 2589 -318 3765 -350 711 -877 1347
-1515 1826 -220 165 -478 329 -726 460 -63 33 -114 63 -114 65 0 11 231 464
237 464 3 0 79 -38 167 -84z m-2159 -895 c486 -66 895 -190 1316 -397 1110
-546 1926 -1558 2218 -2754 90 -368 115 -590 116 -1005 0 -343 -11 -470 -61
-745 -276 -1501 -1373 -2760 -2824 -3240 -1014 -335 -2143 -259 -3116 209
-1200 578 -2064 1715 -2308 3041 -50 273 -60 401 -61 755 0 353 9 458 61 745
289 1579 1510 2885 3079 3290 239 62 426 94 720 124 22 2 191 2 375 1 271 -2
364 -7 485 -24z m-15110 -2606 c125 -19 268 -55 376 -96 46 -18 85 -33 87 -34
2 -2 -167 -415 -174 -423 -1 -2 -33 10 -71 26 -163 70 -258 92 -439 99 -182 7
-267 -8 -391 -68 -291 -143 -443 -496 -394 -918 42 -359 192 -568 456 -636 94
-24 387 -17 478 11 16 5 17 26 17 260 l0 254 -230 0 -230 0 0 215 0 215 490 0
490 0 0 -640 c0 -352 -2 -640 -5 -640 -2 0 -51 -13 -108 -30 -244 -70 -464
-100 -742 -100 -217 0 -333 15 -469 61 -384 129 -612 431 -681 904 -21 144
-22 426 -1 560 42 278 149 497 324 667 172 167 392 271 657 312 124 19 434 20
560 1z m7391 0 c150 -26 484 -134 484 -157 0 -7 -160 -397 -166 -406 -2 -2
-49 14 -107 36 -187 73 -277 93 -427 99 -121 5 -141 3 -192 -17 -148 -55 -203
-227 -114 -349 43 -58 121 -107 359 -226 270 -135 398 -217 488 -312 119 -127
169 -261 169 -458 0 -204 -58 -354 -185 -480 -168 -166 -382 -235 -729 -235
-251 0 -434 33 -623 111 l-73 31 0 250 c0 196 3 249 13 245 6 -3 60 -26 119
-50 389 -165 737 -195 880 -77 83 69 103 191 48 288 -44 76 -129 134 -380 258
-306 152 -413 224 -504 343 -90 116 -133 231 -143 376 -10 158 26 313 98 425
100 154 256 254 470 299 121 25 384 28 515 6z m-9617 -1110 c213 -605 408
-1160 434 -1232 l47 -133 -288 0 -287 0 -69 228 c-39 125 -78 255 -89 290
l-19 62 -442 0 -441 0 -68 -222 c-37 -123 -77 -253 -88 -290 l-21 -68 -284 0
c-173 0 -284 4 -284 9 0 7 704 2023 855 2449 4 10 75 12 331 10 l326 -3 387
-1100z m-3830 172 c156 -507 287 -928 291 -935 3 -7 144 407 312 920 l305 933
362 3 361 2 0 -1230 0 -1230 -251 0 -252 0 6 768 c3 422 11 852 16 956 6 105
9 191 8 193 -2 1 -145 -428 -318 -955 l-315 -957 -246 -3 -245 -2 -25 77 c-13
43 -145 475 -293 960 -149 485 -271 876 -273 868 -2 -8 2 -94 8 -192 7 -98 14
-523 17 -945 l5 -768 -241 0 -241 0 0 1230 0 1230 363 0 362 0 284 -923z
m8295 8 c291 -504 530 -914 532 -913 1 2 -2 71 -7 153 -5 83 -12 493 -15 913
l-7 762 242 0 241 0 0 -1230 0 -1230 -337 2 -338 3 -529 922 c-291 508 -531
921 -533 919 -3 -2 1 -78 8 -167 7 -95 14 -484 16 -921 l5 -758 -241 0 -241 0
0 1230 0 1230 338 0 337 0 529 -915z m2106 105 c0 -702 2 -821 16 -888 50
-242 186 -342 466 -342 275 0 411 102 463 347 12 56 15 210 15 881 l0 812 265
0 265 0 0 -854 c0 -734 -2 -865 -16 -936 -70 -372 -334 -612 -751 -685 -115
-20 -392 -20 -509 0 -206 36 -372 116 -499 240 -111 109 -168 208 -218 380
-20 68 -21 95 -24 963 l-4 892 266 0 265 0 0 -810z m-10047 -3305 c54 -8 126
-22 160 -31 87 -22 247 -86 247 -99 0 -5 -27 -65 -59 -131 l-59 -122 -86 35
c-155 62 -264 85 -430 90 -168 6 -247 -4 -368 -47 -389 -137 -596 -568 -538
-1118 45 -413 246 -685 580 -783 105 -30 360 -38 515 -15 92 13 272 52 338 72
16 5 17 -6 17 -130 l0 -135 -71 -21 c-191 -57 -343 -74 -608 -67 -179 4 -219
8 -304 30 -205 54 -323 121 -467 266 -221 223 -321 520 -321 951 -1 253 32
433 112 625 37 89 129 232 198 308 149 161 372 278 616 321 109 19 403 20 528
1z m1755 -82 c17 -43 233 -597 481 -1231 248 -634 451 -1155 451 -1157 0 -3
-69 -5 -153 -5 l-153 0 -64 163 c-34 89 -103 264 -152 390 l-90 227 -486 -2
-486 -3 -150 -387 -150 -388 -149 0 c-137 0 -149 1 -145 18 3 9 220 565 483
1235 l479 1217 127 0 128 0 29 -77z m7100 0 c17 -43 233 -597 481 -1231 248
-634 451 -1155 451 -1157 0 -3 -69 -5 -153 -5 l-153 0 -64 163 c-34 89 -103
264 -152 390 l-90 227 -486 -2 -486 -3 -150 -387 -150 -388 -149 0 c-137 0
-149 1 -145 18 3 9 220 565 483 1235 l479 1217 127 0 128 0 29 -77z m-4924 52
c119 -18 274 -69 351 -116 209 -126 307 -344 291 -644 -15 -290 -145 -495
-390 -614 -177 -86 -322 -111 -643 -111 l-233 0 0 -480 0 -480 -150 0 -150 0
0 1230 0 1230 413 0 c314 0 435 -4 511 -15z m1446 -1215 l0 -1230 -150 0 -150
0 0 1230 0 1230 150 0 150 0 0 -1230z m2210 1100 l0 -130 -390 0 -390 0 0
-1100 0 -1100 -150 0 -150 0 0 1100 0 1100 -385 0 -385 0 0 130 0 130 925 0
925 0 0 -130z m2820 -970 l0 -1100 540 0 540 0 0 -130 0 -130 -690 0 -690 0 0
1230 0 1230 150 0 150 0 0 -1100z m-8672 -3975 c80 -16 152 -43 152 -56 0 -5
-11 -34 -25 -65 -20 -45 -28 -55 -42 -49 -115 44 -150 50 -278 50 -112 0 -138
-4 -187 -23 -166 -67 -261 -247 -245 -466 15 -209 104 -337 269 -387 62 -19
86 -21 206 -16 201 8 182 -12 182 188 l0 169 -125 0 -125 0 0 60 0 60 195 0
195 0 0 -279 0 -278 -57 -16 c-98 -27 -183 -37 -323 -37 -90 0 -156 5 -195 15
-176 46 -301 176 -352 365 -21 82 -24 290 -4 370 50 203 191 347 387 394 79
19 284 20 372 1z m7744 -14 c37 -12 69 -25 72 -30 4 -6 -29 -109 -39 -119 -1
-1 -42 9 -90 23 -96 28 -233 33 -293 12 -81 -30 -122 -108 -101 -192 17 -67
76 -114 207 -166 282 -110 347 -176 346 -351 0 -65 -5 -86 -30 -135 -34 -66
-96 -119 -177 -149 -74 -27 -340 -28 -439 0 l-68 18 0 73 0 73 78 -25 c94 -31
294 -44 358 -23 95 30 139 90 132 182 -7 94 -54 133 -260 212 -174 67 -251
132 -284 242 -49 164 25 307 189 366 75 27 303 21 399 -11z m1190 0 c37 -12
69 -25 72 -30 4 -6 -29 -109 -39 -119 -1 -1 -42 9 -90 23 -96 28 -233 33 -293
12 -81 -30 -122 -108 -101 -192 17 -67 76 -114 207 -166 282 -110 347 -176
346 -351 0 -65 -5 -86 -30 -135 -34 -66 -96 -119 -177 -149 -74 -27 -340 -28
-439 0 l-68 18 0 73 0 73 78 -25 c94 -31 294 -44 358 -23 95 30 139 90 132
182 -7 94 -54 133 -260 212 -174 67 -251 132 -284 242 -49 164 25 307 189 366
75 27 303 21 399 -11z m3570 0 c37 -12 69 -25 72 -30 4 -6 -29 -109 -39 -119
-1 -1 -42 9 -90 23 -96 28 -233 33 -293 12 -81 -30 -122 -108 -101 -192 17
-67 76 -114 207 -166 282 -110 347 -176 346 -351 0 -65 -5 -86 -30 -135 -34
-66 -96 -119 -177 -149 -74 -27 -340 -28 -439 0 l-68 18 0 73 0 73 78 -25 c94
-31 294 -44 358 -23 95 30 139 90 132 182 -7 94 -54 133 -260 212 -174 67
-251 132 -284 242 -49 164 25 307 189 366 75 27 303 21 399 -11z m-14919 3
c243 -63 376 -252 377 -536 0 -186 -50 -329 -150 -429 -66 -66 -133 -103 -238
-130 -63 -16 -110 -19 -299 -19 l-223 0 0 565 0 565 236 0 c182 0 250 -4 297
-16z m1077 -549 l0 -565 -70 0 -70 0 0 565 0 565 70 0 70 0 0 -565z m2230 0
l0 -565 -70 0 -70 0 0 565 0 565 70 0 70 0 0 -565z m1330 505 l0 -60 -175 0
-175 0 0 -505 0 -505 -70 0 -70 0 0 505 0 505 -180 0 -180 0 0 60 0 60 425 0
425 0 0 -60z m1113 -498 c119 -306 217 -561 217 -565 0 -4 -33 -7 -72 -5 l-73
3 -69 178 -70 177 -220 -2 -220 -3 -67 -175 -67 -175 -71 -3 c-41 -2 -71 1
-71 7 0 5 95 249 211 543 116 293 215 543 220 556 8 20 15 22 71 22 l63 -1
218 -557z m827 53 l0 -505 250 0 250 0 0 -60 0 -60 -320 0 -320 0 0 565 0 565
70 0 70 0 0 -505z m2353 -53 c119 -306 217 -561 217 -565 0 -4 -33 -7 -72 -5
l-73 3 -69 178 -70 177 -220 -2 -220 -3 -67 -175 -67 -175 -71 -3 c-41 -2 -71
1 -71 7 0 5 95 249 211 543 116 293 215 543 220 556 8 20 15 22 71 22 l63 -1
218 -557z m3697 498 l0 -60 -250 0 -250 0 0 -180 0 -180 235 0 235 0 0 -60 0
-60 -235 0 -235 0 0 -205 0 -205 250 0 250 0 0 -60 0 -60 -320 0 -320 0 0 565
0 565 320 0 320 0 0 -60z m1270 0 l0 -60 -175 0 -175 0 0 -505 0 -505 -70 0
-70 0 0 505 0 505 -180 0 -180 0 0 60 0 60 425 0 425 0 0 -60z m3040 0 l0 -60
-250 0 -250 0 0 -205 0 -205 235 0 235 0 0 -60 0 -60 -235 0 -235 0 0 -240 0
-240 -70 0 -70 0 0 565 0 565 320 0 320 0 0 -60z m622 -357 l3 -418 30 -54
c55 -100 133 -135 282 -129 108 4 170 31 214 91 56 78 59 103 59 534 l0 393
70 0 70 0 0 -407 c0 -430 -3 -461 -48 -549 -30 -59 -121 -138 -190 -165 -86
-34 -276 -39 -369 -10 -115 35 -206 124 -245 241 -9 24 -13 166 -16 463 l-3
427 70 0 70 0 3 -417z m1708 97 c113 -173 248 -381 300 -462 l95 -146 -3 464
-3 464 65 0 66 0 0 -565 0 -565 -82 1 -83 0 -208 322 c-115 177 -250 386 -300
464 l-92 141 3 -464 3 -464 -65 0 -66 0 0 565 0 566 82 -3 82 -3 206 -315z
m1673 304 c243 -63 376 -252 377 -536 0 -186 -50 -329 -150 -429 -66 -66 -133
-103 -238 -130 -63 -16 -110 -19 -299 -19 l-223 0 0 565 0 565 236 0 c182 0
250 -4 297 -16z"/>
<path d="M28685 26514 c-16 -2 -79 -9 -140 -15 -662 -65 -1340 -347 -1890
-785 -137 -109 -445 -416 -551 -549 -463 -580 -729 -1235 -794 -1954 -16 -171
-7 -622 14 -781 115 -830 451 -1531 1014 -2112 783 -806 1884 -1202 3012
-1082 651 69 1256 310 1798 716 l132 99 0 62 -1 62 -452 302 -452 303 -61 -31
c-79 -40 -159 -48 -239 -25 -32 10 -61 14 -65 9 -4 -4 -112 -118 -239 -252
l-230 -244 6 -77 c5 -65 2 -83 -16 -126 -40 -90 -110 -141 -207 -151 -74 -8
-135 12 -191 60 -61 54 -83 104 -83 190 0 81 25 142 78 188 53 46 97 61 186
63 l79 1 236 249 237 249 -19 56 c-38 111 -14 233 65 334 l30 37 -124 298
-125 297 -61 7 c-34 4 -81 16 -106 26 -93 42 -177 147 -192 241 -4 23 -9 41
-13 41 -3 0 -339 77 -746 170 -407 94 -745 170 -751 170 -6 0 -27 -24 -47 -54
-19 -29 -55 -69 -79 -89 -43 -35 -161 -97 -185 -97 -10 0 -13 -73 -13 -332 l1
-333 52 -30 c93 -53 144 -156 134 -271 -19 -247 -317 -355 -493 -179 -65 65
-89 129 -82 224 8 104 59 187 142 232 l46 24 0 330 0 330 -52 19 c-69 24 -150
78 -193 129 -19 22 -35 44 -35 47 0 4 -180 -58 -400 -138 -358 -130 -400 -148
-400 -167 0 -12 -12 -46 -27 -76 -35 -68 -94 -114 -168 -129 -196 -41 -352
136 -293 331 15 51 69 114 122 142 80 42 235 23 284 -36 10 -12 71 7 405 128
l392 143 7 77 c11 123 49 214 119 290 l41 44 -231 454 -231 454 -73 5 c-126 8
-226 72 -285 183 -24 45 -27 61 -27 150 0 85 4 107 24 147 31 63 89 121 153
154 75 39 190 45 270 14 75 -28 150 -96 185 -168 24 -50 28 -68 28 -147 0 -79
-4 -97 -28 -145 -16 -30 -37 -64 -47 -75 -18 -20 -13 -30 215 -475 l233 -454
91 3 c96 3 177 -14 239 -50 32 -18 34 -18 56 -2 12 10 394 366 849 792 633
591 827 777 821 790 -44 104 -47 118 -46 211 1 52 2 106 4 120 3 22 -38 49
-526 337 l-529 312 -41 -21 c-29 -15 -60 -21 -107 -21 -141 0 -249 105 -249
244 0 72 17 122 59 170 142 167 419 83 440 -133 l6 -60 529 -313 530 -312 59
43 c32 24 85 53 118 65 l59 22 0 143 0 144 -39 19 c-21 11 -57 41 -80 67 -96
109 -94 273 4 382 137 152 380 121 478 -61 30 -57 32 -203 3 -257 -25 -49 -84
-108 -128 -131 l-38 -19 0 -144 0 -144 38 -13 c108 -35 192 -99 248 -190 26
-41 42 -58 53 -55 9 3 282 57 606 121 325 64 611 121 637 126 39 9 48 15 58
42 11 32 10 33 -69 109 -232 221 -601 471 -919 621 -347 163 -716 270 -1114
323 -116 15 -626 28 -703 18z"/>
<path d="M30864 25078 l-651 -130 -12 -63 c-6 -35 -20 -85 -32 -111 l-20 -48
43 -41 c91 -88 745 -711 770 -733 25 -23 26 -23 77 -7 73 24 190 17 256 -15
63 -31 124 -92 156 -155 21 -43 24 -64 24 -150 0 -89 -3 -106 -27 -150 -32
-62 -103 -130 -166 -158 -36 -16 -67 -21 -132 -22 -77 0 -92 3 -152 33 -76 37
-120 83 -155 160 -38 82 -41 162 -8 267 5 17 -66 89 -411 419 l-417 399 -31
-13 c-114 -47 -140 -52 -246 -48 -92 3 -113 7 -171 35 l-66 31 -814 -760
c-448 -418 -829 -774 -847 -792 l-33 -32 21 -47 c11 -25 26 -77 33 -114 l12
-68 754 -173 c703 -161 755 -172 764 -155 18 33 85 90 133 114 71 34 190 38
266 9 75 -28 150 -96 185 -168 23 -48 27 -70 28 -142 0 -76 -3 -92 -32 -151
-18 -35 -43 -75 -56 -87 l-24 -23 127 -302 127 -302 64 -6 c118 -10 217 -79
267 -187 23 -49 27 -70 27 -149 l0 -92 445 -298 c245 -164 450 -297 455 -296
6 1 36 9 67 18 43 12 70 14 108 7 l50 -9 58 66 c754 855 1072 1980 872 3088
-92 510 -315 1030 -628 1462 l-93 129 -37 -10 c-80 -22 -186 7 -246 67 l-31
32 -651 -129z"/>
<path d="M11382 23792 c-29 -103 -97 -334 -152 -514 -55 -180 -100 -329 -100
-333 0 -3 140 -5 310 -5 171 0 310 2 310 5 0 3 -63 209 -139 458 -77 249 -148
480 -158 514 l-18 61 -53 -186z"/>
<path d="M10228 19782 c-20 -70 -106 -311 -192 -537 -85 -225 -154 -411 -152
-412 2 -2 176 -2 389 -1 l385 3 -159 425 c-88 234 -175 473 -193 532 -18 60
-34 110 -37 112 -2 2 -20 -53 -41 -122z"/>
<path d="M17328 19782 c-20 -70 -106 -311 -192 -537 -85 -225 -154 -411 -152
-412 2 -2 176 -2 389 -1 l385 3 -159 425 c-88 234 -175 473 -193 532 -18 60
-34 110 -37 112 -2 2 -20 -53 -41 -122z"/>
<path d="M11980 19502 l0 -502 93 0 c177 0 411 19 492 40 214 55 325 159 365
341 8 35 11 99 8 166 -4 96 -8 117 -35 175 -43 91 -101 151 -187 193 -112 56
-222 74 -498 81 l-238 7 0 -501z"/>
<path d="M7600 14614 l0 -457 136 8 c75 3 162 13 193 21 191 50 291 201 291
437 -1 269 -124 413 -375 437 -55 5 -133 10 -172 10 l-73 0 0 -456z"/>
<path d="M13442 14954 c-7 -25 -44 -127 -82 -227 -39 -100 -70 -185 -70 -189
0 -5 77 -8 170 -8 94 0 170 3 170 7 0 3 -36 102 -80 220 -44 117 -80 220 -80
228 0 31 -16 13 -28 -31z"/>
<path d="M16622 14954 c-7 -25 -44 -127 -82 -227 -39 -100 -70 -185 -70 -189
0 -5 77 -8 170 -8 94 0 170 3 170 7 0 3 -36 102 -80 220 -44 117 -80 220 -80
228 0 31 -16 13 -28 -31z"/>
<path d="M28540 14614 l0 -457 136 8 c75 3 162 13 193 21 191 50 291 201 291
437 -1 269 -124 413 -375 437 -55 5 -133 10 -172 10 l-73 0 0 -456z"/>
</g>
</svg>
